<?xml version="1.0" encoding="UTF-8"?><svg id="Layer_2" xmlns="http://www.w3.org/2000/svg" viewBox="0 0 94.22 94.22"><defs><style>.cls-1{fill:#231f20;}</style></defs><g id="Layer_1-2"><path class="cls-1" d="M.72,54.39l21.36-8.95h0c.01-.21.05-.41.09-.61.03-.18.09-.36.16-.51.57-2.34,2.22-9.65,2.35-16.29.11-5.34-.77-10.84-2.61-16.35-.06-.18-.1-.35-.1-.53L.72,2.25C.27,2.07,0,1.63,0,1.17,0,1.02.03.86.09.72.34.12,1.03-.16,1.63.09l21.43,8.97,4.78,2,9.77,4.09,3.22,1.35,11.48,4.81,1.57.66,5.93,2.49c.46-.32,1.08-.77,1.6-1.26.3-.29.58-.62.84-.97.27-.37.51-.77.73-1.19.02-.08.06-.15.13-.19.12-.09.23-.07.34-.05h0s.06.01.09.03c.15.04.41.1.74.16.55.11,1.26.22,1.94.23.4,0,.81-.02,1.21-.08.49-.06.98-.18,1.48-.35h.02c.08-.03.18-.03.29.04.01,0,.02.01.03.02.04.03.08.08.12.13.02.03.03.05.04.08.07.12.2.32.36.58.32.46.77,1.08,1.26,1.59.44.47.96.88,1.55,1.23.2.13.4.23.61.34.07.02.14.06.18.11.11.13.08.25.06.36,0,.03-.01.06-.03.09-.06.23-.18.78-.27,1.41-.06.4-.11.84-.11,1.26-.01.62.06,1.26.21,1.9.06.26.13.53.22.79.01.04.01.07.01.11,0,.09-.03.18-.1.24-.04.06-.1.1-.15.13-.03.02-.05.03-.08.04-.2.11-.62.38-1.09.73-.36.26-.74.56-1.08.89-.46.44-.87.95-1.22,1.52l2.39,5.7.68,1.62h0s4.79,11.44,4.79,11.44l1.4,3.35,4.12,9.85,2.11,5.04,8.88,21.21c.25.6-.03,1.28-.63,1.54-.15.06-.3.09-.45.09-.46,0-.9-.27-1.08-.72l-8.98-21.43s-.09-.02-.13-.03h-.06c-.18-.04-.36-.1-.52-.18-2.34-.57-9.65-2.21-16.29-2.35-5.35-.11-10.85.77-16.35,2.61-.04.01-.07.02-.11.03-.23.08-.5.12-.79.09l-8.9,21.26c-.25.6-.94.88-1.54.63-.6-.25-.88-.94-.63-1.54l9.13-21.8s0,0,0,0c-.06-.1-.11-.21-.15-.32-1.25-2.06-5.25-8.39-9.85-13.18-3.64-3.78-8.05-6.99-13.12-9.55-.17-.04-.33-.1-.49-.19L1.63,56.56c-.6.25-1.29-.03-1.54-.63-.25-.6.03-1.29.63-1.54ZM26.96,13.24c1.3,4.67,1.96,9.32,1.96,13.89,0,.33,0,.65,0,.98-.1,4.48-.82,9.15-1.41,12.29-.23,1.22-.43,2.22-.6,3.03h0s9.81-4.11,9.81-4.11h0s0-.06.01-.09c.02-.12.06-.23.11-.34.38-1.56,1.48-6.43,1.57-10.86.08-3.5-.49-7.1-1.67-10.7l-9.76-4.09ZM54.25,52.97s0,0,0,0l4.83-11.54h0c-.63-.96-1.67-2.45-2.82-3.65-.98-1.02-2.12-1.91-3.42-2.67l-11.52,4.83c2.7,1.6,5.11,3.49,7.17,5.64,2.07,2.16,3.93,4.71,5.13,6.46.23.34.44.65.63.93ZM61.35,32.84c-.3-.32-.64-.61-1.01-.87l-5.91,2.48c1.06.7,2.01,1.48,2.84,2.36.98,1.01,1.86,2.2,2.46,3.07l2.5-5.97c-.26-.35-.56-.73-.88-1.06ZM40.06,18.73c.77,2.92,1.16,5.84,1.16,8.7,0,.22,0,.44,0,.65-.06,2.99-.55,6.1-.94,8.2-.13.66-.23,1.21-.34,1.69,0,0,0,0,0,0l11.59-4.85s0,0,0,0c.23-1.01.67-3.13.7-5.09.03-1.45-.16-2.94-.56-4.44l-11.61-4.86ZM53.27,24.26c.25,1.17.37,2.32.37,3.47v.32c-.03,1.5-.27,3.06-.47,4.1-.02.11-.04.2-.06.3,0,0,0,0,0,0l6.03-2.53s0,0,0,0c.1-.53.21-1.24.22-1.9,0-.41-.02-.82-.08-1.25l-6.02-2.52ZM67.45,34.98c-.41-.07-.86-.11-1.29-.12-.6-.01-1.22.05-1.85.2,0,0,0,0,0,0l-2.45,5.85s0,0,0,0c1.4-.32,2.8-.48,4.17-.45,1.41.03,2.86.24,3.9.43l-2.47-5.91ZM70.58,42.45c-1.12-.23-2.92-.56-4.59-.59-1.57-.03-3.19.19-4.82.67,0,0,0,0,0,0l-4.85,11.58c3.25-.88,6.5-1.3,9.67-1.24,2.99.06,6.1.55,8.19.94.47.09.89.17,1.27.25l-4.86-11.61ZM50.77,67.37c5.15-1.48,10.28-2.18,15.3-2.08,4.48.1,9.15.82,12.29,1.41,1.02.19,1.88.36,2.6.51l-4.17-9.97h0c-1.57-.38-6.44-1.48-10.86-1.57-3.56-.07-7.23.51-10.9,1.74-.03,0-.05.01-.08.02,0,0-.02,0-.03,0,0,0,0,0,0,0l-4.16,9.92s0,0,0,0ZM39.83,54.36c3.1,3.24,5.89,7.05,7.7,9.69.49.73.92,1.36,1.29,1.92l4.11-9.82s0,0,0,0c-.95-1.53-3.51-5.54-6.46-8.61-2.35-2.45-5.18-4.53-8.43-6.22l-9.77,4.09c4.38,2.51,8.27,5.51,11.58,8.95Z"/></g></svg>