<?xml version="1.0" encoding="UTF-8"?><svg id="Layer_2" xmlns="http://www.w3.org/2000/svg" xmlns:xlink="http://www.w3.org/1999/xlink" viewBox="0 0 99.32 99.33"><defs><style>.cls-1{fill:#231f20;}.cls-2{fill:url(#New_Gradient_Swatch_1);}</style><linearGradient id="New_Gradient_Swatch_1" x1="4531.58" y1="49.66" x2="4625.79" y2="49.66" gradientTransform="translate(4628.35) rotate(-180) scale(1 -1)" gradientUnits="userSpaceOnUse"><stop offset="0" stop-color="#612c75"/><stop offset=".3" stop-color="#7b5190"/><stop offset=".5" stop-color="#bf99c3"/><stop offset=".7" stop-color="#7b5190"/><stop offset="1" stop-color="#612c75"/></linearGradient></defs><g id="Layer_1-2"><path class="cls-2" d="M3.27,56.95l21.36-8.95h0c.01-.21.05-.41.09-.61.03-.18.09-.36.16-.51.57-2.34,2.22-9.65,2.35-16.29.11-5.34-.77-10.84-2.61-16.35-.06-.18-.1-.35-.1-.53L3.27,4.81c-.45-.18-.72-.62-.72-1.08,0-.15.03-.3.09-.45.25-.6.94-.88,1.54-.63l21.43,8.97,4.78,2,9.77,4.09,3.22,1.35,11.48,4.81,1.57.66,5.93,2.49c.46-.32,1.08-.77,1.6-1.26.3-.29.58-.62.84-.97.27-.37.51-.77.73-1.19.02-.08.06-.15.13-.19.12-.09.23-.07.34-.05h0s.06.01.09.03c.15.04.41.1.74.16.55.11,1.26.22,1.94.23.4,0,.81-.02,1.21-.08.49-.06.98-.18,1.48-.35h.02c.08-.03.18-.03.29.04.01,0,.02.01.03.02.04.03.08.08.12.13.02.03.03.05.04.08.07.12.2.32.36.58.32.46.77,1.08,1.26,1.59.44.47.96.88,1.55,1.23.2.13.4.23.61.34.07.02.14.06.18.11.11.13.08.25.06.36,0,.03-.01.06-.03.09-.06.23-.18.78-.27,1.41-.06.4-.11.84-.11,1.26-.01.62.06,1.26.21,1.9.06.26.13.53.22.79.01.04.01.07.01.11,0,.09-.03.18-.1.24-.04.06-.1.1-.15.13-.03.02-.05.03-.08.04-.2.11-.62.38-1.09.73-.36.26-.74.56-1.08.89-.46.44-.87.95-1.22,1.52l2.39,5.7.68,1.62h0s4.79,11.44,4.79,11.44l1.4,3.35,4.12,9.85,2.11,5.04,8.88,21.21c.25.6-.03,1.28-.63,1.54-.15.06-.3.09-.45.09-.46,0-.9-.27-1.08-.72l-8.98-21.43s-.09-.02-.13-.03h-.06c-.18-.04-.36-.1-.52-.18-2.34-.57-9.65-2.21-16.29-2.35-5.35-.11-10.85.77-16.35,2.61-.04.01-.07.02-.11.03-.23.08-.5.12-.79.09l-8.9,21.26c-.25.6-.94.88-1.54.63s-.88-.94-.63-1.54l9.13-21.8s0,0,0,0c-.06-.1-.11-.21-.15-.32-1.25-2.06-5.25-8.39-9.85-13.18-3.64-3.78-8.05-6.99-13.12-9.55-.17-.04-.33-.1-.49-.19l-21.55,9.02c-.6.25-1.29-.03-1.54-.63-.25-.6.03-1.29.63-1.54ZM29.51,15.8c1.3,4.67,1.96,9.32,1.96,13.89,0,.33,0,.65,0,.98-.1,4.48-.82,9.15-1.41,12.29-.23,1.22-.43,2.22-.6,3.03h0s9.81-4.11,9.81-4.11h0s0-.06.01-.09c.02-.12.06-.23.11-.34.38-1.56,1.48-6.43,1.57-10.86.08-3.5-.49-7.1-1.67-10.7l-9.76-4.09ZM56.8,55.52s0,0,0,0l4.83-11.54h0c-.63-.96-1.67-2.45-2.82-3.65-.98-1.02-2.12-1.91-3.42-2.67l-11.52,4.83c2.7,1.6,5.11,3.49,7.17,5.64,2.07,2.16,3.93,4.71,5.13,6.46.23.34.44.65.63.93ZM63.91,35.39c-.3-.32-.64-.61-1.01-.87l-5.91,2.48c1.06.7,2.01,1.48,2.84,2.36.98,1.01,1.86,2.2,2.46,3.07l2.5-5.97c-.26-.35-.56-.73-.88-1.06ZM42.61,21.28c.77,2.92,1.16,5.84,1.16,8.7,0,.22,0,.44,0,.65-.06,2.99-.55,6.1-.94,8.2-.13.66-.23,1.21-.34,1.69,0,0,0,0,0,0l11.59-4.85s0,0,0,0c.23-1.01.67-3.13.7-5.09.03-1.45-.16-2.94-.56-4.44l-11.61-4.86ZM55.82,26.82c.25,1.17.37,2.32.37,3.47v.32c-.03,1.5-.27,3.06-.47,4.1-.02.11-.04.2-.06.3,0,0,0,0,0,0l6.03-2.53s0,0,0,0c.1-.53.21-1.24.22-1.9,0-.41-.02-.82-.08-1.25l-6.02-2.52ZM70,37.53c-.41-.07-.86-.11-1.29-.12-.6-.01-1.22.05-1.85.2,0,0,0,0,0,0l-2.45,5.85s0,0,0,0c1.4-.32,2.8-.48,4.17-.45,1.41.03,2.86.24,3.9.43l-2.47-5.91ZM73.14,45c-1.12-.23-2.92-.56-4.59-.59-1.57-.03-3.19.19-4.82.67,0,0,0,0,0,0l-4.85,11.58c3.25-.88,6.5-1.3,9.67-1.24,2.99.06,6.1.55,8.19.94.47.09.89.17,1.27.25l-4.86-11.61ZM53.32,69.93c5.15-1.48,10.28-2.18,15.3-2.08,4.48.1,9.15.82,12.29,1.41,1.02.19,1.88.36,2.6.51l-4.17-9.97h0c-1.57-.38-6.44-1.48-10.86-1.57-3.56-.07-7.23.51-10.9,1.74-.03,0-.05.01-.08.02,0,0-.02,0-.03,0,0,0,0,0,0,0l-4.16,9.92s0,0,0,0ZM42.38,56.91c3.1,3.24,5.89,7.05,7.7,9.69.49.73.92,1.36,1.29,1.92l4.11-9.82s0,0,0,0c-.95-1.53-3.51-5.54-6.46-8.61-2.35-2.45-5.18-4.53-8.43-6.22l-9.77,4.09c4.38,2.51,8.27,5.51,11.58,8.95Z"/><path class="cls-1" d="M3.73,2.55c.15,0,.3.03.45.09l21.43,8.97,4.78,2,9.77,4.09,3.22,1.35,11.48,4.81,1.57.66,5.93,2.49c.46-.32,1.08-.77,1.6-1.26.3-.29.58-.62.84-.97.27-.37.51-.77.73-1.19.02-.08.06-.15.13-.19.07-.05.14-.07.2-.07.05,0,.09,0,.14.02h0s.06.01.09.03c.15.04.41.1.74.16.55.11,1.26.22,1.94.23.04,0,.08,0,.12,0,.36,0,.73-.03,1.09-.08.49-.06.98-.18,1.48-.35h.02s.06-.02.1-.02c.06,0,.12.02.18.06.01,0,.02.01.03.02.04.03.08.08.12.13.02.03.03.05.04.08.07.12.2.32.36.58.32.46.77,1.08,1.26,1.59.44.47.96.88,1.55,1.23.2.13.4.23.61.34.07.02.14.06.18.11.11.13.08.25.06.36,0,.03-.01.06-.03.09-.06.23-.18.78-.27,1.41-.06.4-.11.84-.11,1.26-.01.62.06,1.26.21,1.9.06.26.13.53.22.79.01.04.01.07.01.11,0,.09-.03.18-.1.24-.04.06-.1.1-.15.13-.03.02-.05.03-.08.04-.2.11-.62.38-1.09.73-.36.26-.74.56-1.08.89-.46.44-.87.95-1.22,1.52l2.39,5.7.68,1.62h0s4.79,11.44,4.79,11.44l1.4,3.35,4.12,9.85,2.11,5.04,8.88,21.21c.25.6-.03,1.28-.63,1.54-.15.06-.3.09-.45.09-.46,0-.9-.27-1.08-.72l-8.98-21.43s-.09-.02-.13-.03h-.06c-.18-.04-.36-.1-.52-.18-2.34-.57-9.65-2.21-16.29-2.35-.29,0-.58,0-.88,0-5.07,0-10.27.88-15.48,2.62-.04.01-.07.02-.11.03-.18.06-.38.1-.6.1-.06,0-.13,0-.19-.01l-8.9,21.26c-.19.45-.62.72-1.08.72-.15,0-.3-.03-.45-.09-.6-.25-.88-.94-.63-1.54l9.13-21.8s0,0,0,0c-.06-.1-.11-.21-.15-.32-1.25-2.06-5.25-8.39-9.85-13.18-3.64-3.78-8.05-6.99-13.12-9.55-.17-.04-.33-.1-.49-.19l-21.55,9.02c-.15.06-.3.09-.45.09-.46,0-.89-.27-1.08-.72-.25-.6.03-1.29.63-1.54l21.36-8.95h0c.01-.21.05-.41.09-.61.03-.18.09-.36.16-.51.57-2.34,2.22-9.65,2.35-16.29.11-5.34-.77-10.84-2.61-16.35-.06-.18-.1-.35-.1-.53L3.27,4.81c-.45-.18-.72-.62-.72-1.08,0-.15.03-.3.09-.45.19-.45.63-.72,1.08-.72M29.45,45.99l9.81-4.11h0s0-.06.01-.09c.02-.12.06-.23.11-.34.38-1.56,1.48-6.43,1.57-10.86.08-3.5-.49-7.1-1.67-10.7l-9.76-4.09c1.3,4.67,1.96,9.32,1.96,13.89,0,.33,0,.65,0,.98-.1,4.48-.82,9.15-1.41,12.29-.23,1.22-.43,2.22-.6,3.03h0M42.49,40.53l11.59-4.85s0,0,0,0c.23-1.01.67-3.13.7-5.09.03-1.45-.16-2.94-.56-4.44l-11.61-4.86c.77,2.92,1.16,5.84,1.16,8.7,0,.22,0,.44,0,.65-.06,2.99-.55,6.1-.94,8.2-.13.66-.23,1.21-.34,1.69,0,0,0,0,0,0M55.67,35.01l6.03-2.53s0,0,0,0c.1-.53.21-1.24.22-1.9,0-.41-.02-.82-.08-1.25l-6.02-2.52c.25,1.17.37,2.32.37,3.47v.32c-.03,1.5-.27,3.06-.47,4.1-.02.11-.04.2-.06.3,0,0,0,0,0,0M62.29,42.43l2.5-5.97c-.26-.35-.56-.73-.88-1.06-.3-.32-.64-.61-1.01-.87l-5.91,2.48c1.06.7,2.01,1.48,2.84,2.36.98,1.01,1.86,2.2,2.46,3.07M64.4,43.46s0,0,0,0c1.28-.3,2.57-.45,3.83-.45.12,0,.23,0,.35,0,1.41.03,2.86.24,3.9.43l-2.47-5.91c-.41-.07-.86-.11-1.29-.12-.05,0-.1,0-.15,0-.56,0-1.13.06-1.7.2,0,0,0,0,0,0l-2.45,5.85M56.8,55.52l4.83-11.54h0c-.63-.96-1.67-2.45-2.82-3.65-.98-1.02-2.12-1.91-3.42-2.67l-11.52,4.83c2.7,1.6,5.11,3.49,7.17,5.64,2.07,2.16,3.93,4.71,5.13,6.46.23.34.44.65.63.93,0,0,0,0,0,0M51.37,68.51l4.11-9.82s0,0,0,0c-.95-1.53-3.51-5.54-6.46-8.61-2.35-2.45-5.18-4.53-8.43-6.22l-9.77,4.09c4.38,2.51,8.27,5.51,11.58,8.95,3.1,3.24,5.89,7.05,7.7,9.69.49.73.92,1.36,1.29,1.92M58.87,56.66c3.03-.82,6.07-1.24,9.04-1.24.21,0,.42,0,.63,0,2.99.06,6.1.55,8.19.94.47.09.89.17,1.27.25l-4.86-11.61c-1.12-.23-2.92-.56-4.59-.59-.1,0-.2,0-.29,0-1.48,0-3,.22-4.53.68,0,0,0,0,0,0l-4.85,11.58M53.32,69.93s0,0,0,0c4.82-1.38,9.63-2.09,14.35-2.09.32,0,.63,0,.95,0,4.48.1,9.15.82,12.29,1.41,1.02.19,1.88.36,2.6.51l-4.17-9.97h0c-1.57-.38-6.44-1.48-10.86-1.57-.19,0-.38,0-.57,0-3.38,0-6.85.59-10.33,1.75-.03,0-.05.01-.08.02,0,0-.02,0-.03,0,0,0,0,0,0,0l-4.16,9.92M3.73,0h0C2.23,0,.88.89.29,2.27.1,2.71,0,3.21,0,3.72,0,5.25.91,6.6,2.31,7.17l20.07,8.41c1.64,5.07,2.41,10.09,2.31,14.95-.13,6.28-1.69,13.29-2.24,15.56,0,.02-.02.04-.02.06L2.29,54.59c-1.9.79-2.79,2.98-2,4.88.58,1.39,1.93,2.29,3.44,2.29.5,0,.98-.1,1.44-.29l20.52-8.59c4.56,2.38,8.53,5.32,11.81,8.73,3.94,4.11,7.47,9.47,9,11.92l-8.64,20.64c-.38.92-.39,1.93-.01,2.85.38.92,1.09,1.64,2.01,2.03.46.19.94.29,1.44.29,1.51,0,2.86-.9,3.44-2.29l8.36-19.97c4.91-1.63,9.81-2.45,14.56-2.45h.83c6,.13,12.61,1.55,15.19,2.16l8.49,20.27c.56,1.38,1.92,2.28,3.44,2.28.52,0,1.01-.1,1.47-.3,1.86-.79,2.75-2.97,1.97-4.86l-8.89-21.22-2.11-5.04-4.12-9.85-1.4-3.35-4.59-10.96h0s-.2-.48-.2-.48l-.68-1.62-1.81-4.33s.04-.04.06-.06c.26-.25.55-.48.82-.67.38-.28.71-.49.86-.58l.13-.08.2-.14s.3-.2.58-.54c.44-.52.68-1.18.68-1.87v-.41l-.14-.5c-.06-.18-.11-.36-.15-.53-.11-.47-.16-.89-.15-1.3,0-.31.04-.63.08-.91.06-.44.14-.81.19-1.04v-.04s.09-.32.09-.32c.21-1.25-.22-2.05-.62-2.52-.25-.32-.64-.61-1.09-.8-.09-.05-.18-.1-.26-.15-.46-.28-.8-.54-1.08-.84-.39-.4-.76-.93-1.01-1.29-.05-.08-.11-.18-.16-.26l-.05-.12-.24-.35c-.08-.12-.24-.31-.43-.48l-.25-.24-.27-.14c-.44-.25-.93-.39-1.43-.39h-.41l-.06.02h-.05l-.41.13c-.36.12-.69.2-1,.24-.3.05-.53.06-.76.06-.48,0-1.01-.07-1.56-.18-.19-.03-.34-.07-.45-.09l-.06-.02-.32-.07-.24-.05h-.09c-.1-.01-.2-.02-.3-.02-.62,0-1.21.2-1.71.56-.41.28-.74.71-.95,1.21-.14.26-.29.5-.46.73-.15.21-.34.43-.54.62-.06.06-.13.12-.2.18l-4.57-1.92-1.57-.66-11.48-4.81-3.23-1.35-9.77-4.09-4.78-2L5.17.29c-.46-.19-.94-.29-1.44-.29h0ZM32.86,41.79c.53-3.09,1.08-7.12,1.16-11.06,0-.35,0-.69,0-1.04,0-3.16-.3-6.38-.9-9.61l4.06,1.7c.86,2.95,1.27,5.89,1.21,8.74-.07,3.59-.86,7.55-1.3,9.49l-4.23,1.77h0ZM45.82,36.36c.25-1.75.45-3.73.5-5.66,0-.22,0-.47,0-.71,0-1.48-.1-2.99-.29-4.5l5.99,2.51c.16.86.23,1.71.21,2.54-.02.93-.15,2.06-.38,3.31l-6.03,2.52h0ZM58.74,30.95s0-.1,0-.14l.17.07-.17.07h0ZM68.43,40.45v-.03s.03.03.03.03h-.03ZM49.19,43.03l5.96-2.49c.67.47,1.28,1,1.82,1.56.56.58,1.16,1.32,1.78,2.18l-2.52,6.02c-.99-1.3-2.13-2.68-3.34-3.94-1.14-1.18-2.37-2.29-3.69-3.33h0ZM36.32,48.42l4.12-1.73c2.57,1.45,4.83,3.18,6.73,5.16,2.17,2.25,4.16,5.1,5.44,7.08l-1.79,4.27c-1.78-2.48-4.1-5.46-6.59-8.06-2.36-2.45-5.01-4.7-7.91-6.72h0ZM65.58,47.25c.9-.19,1.79-.28,2.67-.28h.24c.93.02,1.93.14,2.82.29l2.53,6.05c-1.64-.22-3.46-.4-5.25-.44h-.68c-1.59,0-3.2.1-4.82.33l2.49-5.95h0ZM59.37,62.09c2.88-.87,5.74-1.31,8.54-1.31h.52c3.31.08,7.01.77,9.07,1.22l1.83,4.37c-3.03-.51-6.87-1.01-10.65-1.09-.34,0-.67-.01-1.01-.01-3.31,0-6.67.33-10.05.99l1.75-4.18h0Z"/></g></svg>